# xmcd CD database file
#
# Track frame offsets:
#	150
#	21337
#	39999
#	59594
#	78259
#	92901
#	107586
#	113449
#	132058
#	148182
#
# Disc length: 2044 seconds
#
# Revision: 1
# Processed by: cddbd v1.5.2PL0 Copyright (c) Steve Scherf et al.
# Submitted via: CDex 1.51
#
DISCID=7e07fa0a
DTITLE=Aoki Takamasa, Ogurusu Norihide, Takagi Masakatsu - Come And Play In Our Backyard
DYEAR=2003
DGENRE=New Age
TTITLE0=Humming Song(Aoki&Ogurusu)
TTITLE1=Golgen Town With Sunglasses(Takagi)
TTITLE2=Erin(Aoki)
TTITLE3=Change(Ogurusu)
TTITLE4=Get The FNK(Aoki)
TTITLE5=Star Every Morning(Takagi)
TTITLE6=Sure!(Ogurusu&Aoki)
TTITLE7=Walking With POLCO(Aoki)
TTITLE8=House Of Time(Takagi)
TTITLE9=Humming Song 2(Aoki&Ogurusu)
EXTD=YEAR: 2003
EXTT0=
EXTT1=
EXTT2=
EXTT3=
EXTT4=
EXTT5=
EXTT6=
EXTT7=
EXTT8=
EXTT9=
PLAYORDER=
